<mxfile host="app.diagrams.net" modified="2021-11-18T09:42:25.660Z" agent="5.0 (Macintosh; Intel Mac OS X 10_15_7) AppleWebKit/605.1.15 (KHTML, like Gecko) Version/15.0 Safari/605.1.15" etag="osvYFIvvRa7a6TkY69__" version="15.8.2" type="github">
  <diagram id="TdQD60Y_T0TvuS8qh80Z" name="Page-1">
    <mxGraphModel dx="965" dy="794" grid="1" gridSize="10" guides="1" tooltips="1" connect="1" arrows="1" fold="1" page="1" pageScale="1" pageWidth="827" pageHeight="1169" math="0" shadow="0">
      <root>
        <mxCell id="0" />
        <mxCell id="1" parent="0" />
        <mxCell id="uiXceuFEp8EhakddFhkQ-1" value="" style="shape=actor;whiteSpace=wrap;html=1;" parent="1" vertex="1">
          <mxGeometry x="110" y="70" width="40" height="60" as="geometry" />
        </mxCell>
        <mxCell id="uiXceuFEp8EhakddFhkQ-2" value="On-Camera Person" style="text;html=1;resizable=0;autosize=1;align=center;verticalAlign=middle;points=[];fillColor=none;strokeColor=none;rounded=0;" parent="1" vertex="1">
          <mxGeometry x="70" y="140" width="120" height="20" as="geometry" />
        </mxCell>
        <mxCell id="uiXceuFEp8EhakddFhkQ-3" value="Headphone" style="whiteSpace=wrap;html=1;aspect=fixed;" parent="1" vertex="1">
          <mxGeometry x="230" y="60" width="80" height="80" as="geometry" />
        </mxCell>
        <mxCell id="uiXceuFEp8EhakddFhkQ-4" value="Mic" style="ellipse;whiteSpace=wrap;html=1;aspect=fixed;" parent="1" vertex="1">
          <mxGeometry x="230" y="160" width="80" height="80" as="geometry" />
        </mxCell>
        <mxCell id="uiXceuFEp8EhakddFhkQ-5" value="" style="shape=actor;whiteSpace=wrap;html=1;" parent="1" vertex="1">
          <mxGeometry x="110" y="280" width="40" height="60" as="geometry" />
        </mxCell>
        <mxCell id="uiXceuFEp8EhakddFhkQ-6" value="On-Camera Person" style="text;html=1;resizable=0;autosize=1;align=center;verticalAlign=middle;points=[];fillColor=none;strokeColor=none;rounded=0;" parent="1" vertex="1">
          <mxGeometry x="70" y="350" width="120" height="20" as="geometry" />
        </mxCell>
        <mxCell id="uiXceuFEp8EhakddFhkQ-7" value="Headphone" style="whiteSpace=wrap;html=1;aspect=fixed;" parent="1" vertex="1">
          <mxGeometry x="230" y="270" width="80" height="80" as="geometry" />
        </mxCell>
        <mxCell id="uiXceuFEp8EhakddFhkQ-8" value="Mic" style="ellipse;whiteSpace=wrap;html=1;aspect=fixed;" parent="1" vertex="1">
          <mxGeometry x="230" y="370" width="80" height="80" as="geometry" />
        </mxCell>
        <mxCell id="uiXceuFEp8EhakddFhkQ-9" value="Headphone Amp" style="rounded=0;whiteSpace=wrap;html=1;" parent="1" vertex="1">
          <mxGeometry x="440" y="240" width="120" height="60" as="geometry" />
        </mxCell>
        <mxCell id="uiXceuFEp8EhakddFhkQ-10" value="" style="curved=1;endArrow=classic;html=1;rounded=0;exitX=0;exitY=0.5;exitDx=0;exitDy=0;entryX=1;entryY=0.5;entryDx=0;entryDy=0;fillColor=#e1d5e7;strokeColor=#9673a6;endSize=6;strokeWidth=4;" parent="1" source="uiXceuFEp8EhakddFhkQ-9" target="uiXceuFEp8EhakddFhkQ-3" edge="1">
          <mxGeometry width="50" height="50" relative="1" as="geometry">
            <mxPoint x="390" y="430" as="sourcePoint" />
            <mxPoint x="380" y="120" as="targetPoint" />
            <Array as="points">
              <mxPoint x="390" y="260" />
              <mxPoint x="370" y="100" />
            </Array>
          </mxGeometry>
        </mxCell>
        <mxCell id="uiXceuFEp8EhakddFhkQ-11" value="" style="curved=1;endArrow=classic;html=1;rounded=0;entryX=1;entryY=0.5;entryDx=0;entryDy=0;fillColor=#e1d5e7;strokeColor=#9673a6;endSize=6;strokeWidth=4;" parent="1" target="uiXceuFEp8EhakddFhkQ-7" edge="1">
          <mxGeometry width="50" height="50" relative="1" as="geometry">
            <mxPoint x="440" y="270" as="sourcePoint" />
            <mxPoint x="320" y="110" as="targetPoint" />
            <Array as="points">
              <mxPoint x="390" y="270" />
              <mxPoint x="360" y="310" />
            </Array>
          </mxGeometry>
        </mxCell>
        <mxCell id="uiXceuFEp8EhakddFhkQ-12" value="Audio Mixer" style="rounded=0;whiteSpace=wrap;html=1;" parent="1" vertex="1">
          <mxGeometry x="490" y="1030" width="560" height="130" as="geometry" />
        </mxCell>
        <mxCell id="uiXceuFEp8EhakddFhkQ-13" value="" style="curved=1;endArrow=classic;html=1;rounded=0;entryX=0.5;entryY=0;entryDx=0;entryDy=0;exitX=1;exitY=0.5;exitDx=0;exitDy=0;fillColor=#dae8fc;strokeColor=#6c8ebf;strokeWidth=4;" parent="1" source="uiXceuFEp8EhakddFhkQ-4" target="uiXceuFEp8EhakddFhkQ-16" edge="1">
          <mxGeometry width="50" height="50" relative="1" as="geometry">
            <mxPoint x="450" y="280" as="sourcePoint" />
            <mxPoint x="320" y="320" as="targetPoint" />
            <Array as="points">
              <mxPoint x="370" y="300" />
              <mxPoint x="590" y="430" />
            </Array>
          </mxGeometry>
        </mxCell>
        <mxCell id="uiXceuFEp8EhakddFhkQ-14" value="" style="curved=1;endArrow=classic;html=1;rounded=0;entryX=0.5;entryY=0;entryDx=0;entryDy=0;exitX=1;exitY=0.5;exitDx=0;exitDy=0;fillColor=#dae8fc;strokeColor=#6c8ebf;strokeWidth=4;" parent="1" source="uiXceuFEp8EhakddFhkQ-8" target="uiXceuFEp8EhakddFhkQ-15" edge="1">
          <mxGeometry width="50" height="50" relative="1" as="geometry">
            <mxPoint x="320" y="210" as="sourcePoint" />
            <mxPoint x="570" y="520" as="targetPoint" />
            <Array as="points">
              <mxPoint x="390" y="410" />
              <mxPoint x="540" y="440" />
            </Array>
          </mxGeometry>
        </mxCell>
        <mxCell id="uiXceuFEp8EhakddFhkQ-15" value="1" style="whiteSpace=wrap;html=1;aspect=fixed;" parent="1" vertex="1">
          <mxGeometry x="510" y="1020" width="40" height="40" as="geometry" />
        </mxCell>
        <mxCell id="uiXceuFEp8EhakddFhkQ-16" value="2" style="whiteSpace=wrap;html=1;aspect=fixed;" parent="1" vertex="1">
          <mxGeometry x="560" y="1020" width="40" height="40" as="geometry" />
        </mxCell>
        <mxCell id="uiXceuFEp8EhakddFhkQ-17" value="S1" style="whiteSpace=wrap;html=1;aspect=fixed;" parent="1" vertex="1">
          <mxGeometry x="920" y="1020" width="40" height="40" as="geometry" />
        </mxCell>
        <mxCell id="uiXceuFEp8EhakddFhkQ-18" value="" style="curved=1;endArrow=classic;html=1;rounded=0;exitX=0.5;exitY=0;exitDx=0;exitDy=0;entryX=1;entryY=0.5;entryDx=0;entryDy=0;fillColor=#e1d5e7;strokeColor=#9673a6;endSize=6;strokeWidth=4;" parent="1" source="uiXceuFEp8EhakddFhkQ-17" target="uiXceuFEp8EhakddFhkQ-9" edge="1">
          <mxGeometry width="50" height="50" relative="1" as="geometry">
            <mxPoint x="450" y="280" as="sourcePoint" />
            <mxPoint x="320" y="110" as="targetPoint" />
            <Array as="points">
              <mxPoint x="930" y="430" />
              <mxPoint x="640" y="270" />
            </Array>
          </mxGeometry>
        </mxCell>
        <mxCell id="uiXceuFEp8EhakddFhkQ-20" value="3" style="whiteSpace=wrap;html=1;aspect=fixed;" parent="1" vertex="1">
          <mxGeometry x="610" y="1020" width="40" height="40" as="geometry" />
        </mxCell>
        <mxCell id="uiXceuFEp8EhakddFhkQ-21" value="4" style="whiteSpace=wrap;html=1;aspect=fixed;" parent="1" vertex="1">
          <mxGeometry x="660" y="1020" width="40" height="40" as="geometry" />
        </mxCell>
        <mxCell id="uiXceuFEp8EhakddFhkQ-22" value="S2" style="whiteSpace=wrap;html=1;aspect=fixed;" parent="1" vertex="1">
          <mxGeometry x="970" y="1020" width="40" height="40" as="geometry" />
        </mxCell>
        <mxCell id="uiXceuFEp8EhakddFhkQ-23" value="Lingo-1" style="rounded=0;whiteSpace=wrap;html=1;" parent="1" vertex="1">
          <mxGeometry x="1090" y="60" width="120" height="110" as="geometry" />
        </mxCell>
        <mxCell id="uiXceuFEp8EhakddFhkQ-25" value="In" style="whiteSpace=wrap;html=1;aspect=fixed;" parent="1" vertex="1">
          <mxGeometry x="1070" y="70" width="40" height="40" as="geometry" />
        </mxCell>
        <mxCell id="uiXceuFEp8EhakddFhkQ-26" value="Out" style="whiteSpace=wrap;html=1;aspect=fixed;" parent="1" vertex="1">
          <mxGeometry x="1070" y="120" width="40" height="40" as="geometry" />
        </mxCell>
        <mxCell id="uiXceuFEp8EhakddFhkQ-27" value="Lingo-1" style="rounded=0;whiteSpace=wrap;html=1;" parent="1" vertex="1">
          <mxGeometry x="1090" y="200" width="120" height="110" as="geometry" />
        </mxCell>
        <mxCell id="uiXceuFEp8EhakddFhkQ-28" value="In" style="whiteSpace=wrap;html=1;aspect=fixed;" parent="1" vertex="1">
          <mxGeometry x="1070" y="210" width="40" height="40" as="geometry" />
        </mxCell>
        <mxCell id="uiXceuFEp8EhakddFhkQ-29" value="Out" style="whiteSpace=wrap;html=1;aspect=fixed;" parent="1" vertex="1">
          <mxGeometry x="1070" y="260" width="40" height="40" as="geometry" />
        </mxCell>
        <mxCell id="uiXceuFEp8EhakddFhkQ-30" value="" style="curved=1;endArrow=classic;html=1;rounded=0;exitX=0.5;exitY=0;exitDx=0;exitDy=0;entryX=0;entryY=0.5;entryDx=0;entryDy=0;fillColor=#e1d5e7;strokeColor=#9673a6;endSize=6;strokeWidth=4;" parent="1" source="uiXceuFEp8EhakddFhkQ-22" target="uiXceuFEp8EhakddFhkQ-28" edge="1">
          <mxGeometry width="50" height="50" relative="1" as="geometry">
            <mxPoint x="930" y="510" as="sourcePoint" />
            <mxPoint x="570" y="280" as="targetPoint" />
            <Array as="points">
              <mxPoint x="1010" y="230" />
            </Array>
          </mxGeometry>
        </mxCell>
        <mxCell id="uiXceuFEp8EhakddFhkQ-31" value="" style="curved=1;endArrow=classic;html=1;rounded=0;entryX=0;entryY=0.5;entryDx=0;entryDy=0;fillColor=#e1d5e7;strokeColor=#9673a6;endSize=6;strokeWidth=4;exitX=0.5;exitY=0;exitDx=0;exitDy=0;" parent="1" source="uiXceuFEp8EhakddFhkQ-22" target="uiXceuFEp8EhakddFhkQ-25" edge="1">
          <mxGeometry width="50" height="50" relative="1" as="geometry">
            <mxPoint x="970" y="500" as="sourcePoint" />
            <mxPoint x="1080" y="290" as="targetPoint" />
            <Array as="points">
              <mxPoint x="1020" y="90" />
            </Array>
          </mxGeometry>
        </mxCell>
        <mxCell id="uiXceuFEp8EhakddFhkQ-32" value="" style="curved=1;endArrow=classic;html=1;rounded=0;entryX=0.5;entryY=0;entryDx=0;entryDy=0;exitX=0;exitY=0.5;exitDx=0;exitDy=0;fillColor=#dae8fc;strokeColor=#6c8ebf;strokeWidth=4;" parent="1" source="uiXceuFEp8EhakddFhkQ-26" target="uiXceuFEp8EhakddFhkQ-20" edge="1">
          <mxGeometry width="50" height="50" relative="1" as="geometry">
            <mxPoint x="320" y="210" as="sourcePoint" />
            <mxPoint x="600" y="510" as="targetPoint" />
            <Array as="points">
              <mxPoint x="760" y="140" />
              <mxPoint x="640" y="350" />
            </Array>
          </mxGeometry>
        </mxCell>
        <mxCell id="uiXceuFEp8EhakddFhkQ-33" value="" style="curved=1;endArrow=classic;html=1;rounded=0;entryX=0.5;entryY=0;entryDx=0;entryDy=0;exitX=0;exitY=0.5;exitDx=0;exitDy=0;fillColor=#dae8fc;strokeColor=#6c8ebf;strokeWidth=4;" parent="1" source="uiXceuFEp8EhakddFhkQ-29" target="uiXceuFEp8EhakddFhkQ-21" edge="1">
          <mxGeometry width="50" height="50" relative="1" as="geometry">
            <mxPoint x="1080" y="150" as="sourcePoint" />
            <mxPoint x="650" y="510" as="targetPoint" />
            <Array as="points">
              <mxPoint x="890" y="280" />
              <mxPoint x="690" y="420" />
            </Array>
          </mxGeometry>
        </mxCell>
        <mxCell id="uiXceuFEp8EhakddFhkQ-34" value="Presenter" style="rounded=0;whiteSpace=wrap;html=1;" parent="1" vertex="1">
          <mxGeometry x="1090" y="340" width="120" height="110" as="geometry" />
        </mxCell>
        <mxCell id="uiXceuFEp8EhakddFhkQ-35" value="In" style="whiteSpace=wrap;html=1;aspect=fixed;" parent="1" vertex="1">
          <mxGeometry x="1070" y="350" width="40" height="40" as="geometry" />
        </mxCell>
        <mxCell id="uiXceuFEp8EhakddFhkQ-36" value="Out" style="whiteSpace=wrap;html=1;aspect=fixed;" parent="1" vertex="1">
          <mxGeometry x="1070" y="400" width="40" height="40" as="geometry" />
        </mxCell>
        <mxCell id="uiXceuFEp8EhakddFhkQ-37" value="" style="curved=1;endArrow=classic;html=1;rounded=0;entryX=0.5;entryY=0;entryDx=0;entryDy=0;exitX=0;exitY=0.5;exitDx=0;exitDy=0;fillColor=#dae8fc;strokeColor=#6c8ebf;strokeWidth=4;" parent="1" source="uiXceuFEp8EhakddFhkQ-36" target="uiXceuFEp8EhakddFhkQ-38" edge="1">
          <mxGeometry width="50" height="50" relative="1" as="geometry">
            <mxPoint x="1080" y="290" as="sourcePoint" />
            <mxPoint x="700" y="620" as="targetPoint" />
            <Array as="points">
              <mxPoint x="740" y="420" />
            </Array>
          </mxGeometry>
        </mxCell>
        <mxCell id="uiXceuFEp8EhakddFhkQ-38" value="5" style="whiteSpace=wrap;html=1;aspect=fixed;" parent="1" vertex="1">
          <mxGeometry x="710" y="1020" width="40" height="40" as="geometry" />
        </mxCell>
        <mxCell id="uiXceuFEp8EhakddFhkQ-39" value="6&lt;br&gt;" style="whiteSpace=wrap;html=1;aspect=fixed;" parent="1" vertex="1">
          <mxGeometry x="760" y="1020" width="40" height="40" as="geometry" />
        </mxCell>
        <mxCell id="uiXceuFEp8EhakddFhkQ-40" value="7&lt;br&gt;" style="whiteSpace=wrap;html=1;aspect=fixed;" parent="1" vertex="1">
          <mxGeometry x="810" y="1020" width="40" height="40" as="geometry" />
        </mxCell>
        <mxCell id="uiXceuFEp8EhakddFhkQ-41" value="8&lt;br&gt;" style="whiteSpace=wrap;html=1;aspect=fixed;" parent="1" vertex="1">
          <mxGeometry x="860" y="1020" width="40" height="40" as="geometry" />
        </mxCell>
        <mxCell id="or6pBrKF57FH7ejagVip-1" value="Video Mixer" style="rounded=0;whiteSpace=wrap;html=1;" vertex="1" parent="1">
          <mxGeometry x="1080" y="1030" width="300" height="130" as="geometry" />
        </mxCell>
        <mxCell id="or6pBrKF57FH7ejagVip-3" value="1" style="whiteSpace=wrap;html=1;aspect=fixed;" vertex="1" parent="1">
          <mxGeometry x="1090" y="1020" width="40" height="40" as="geometry" />
        </mxCell>
        <mxCell id="or6pBrKF57FH7ejagVip-4" value="2" style="whiteSpace=wrap;html=1;aspect=fixed;" vertex="1" parent="1">
          <mxGeometry x="1140" y="1020" width="40" height="40" as="geometry" />
        </mxCell>
        <mxCell id="or6pBrKF57FH7ejagVip-5" value="3" style="whiteSpace=wrap;html=1;aspect=fixed;" vertex="1" parent="1">
          <mxGeometry x="1190" y="1020" width="40" height="40" as="geometry" />
        </mxCell>
        <mxCell id="or6pBrKF57FH7ejagVip-6" value="4" style="whiteSpace=wrap;html=1;aspect=fixed;" vertex="1" parent="1">
          <mxGeometry x="1240" y="1020" width="40" height="40" as="geometry" />
        </mxCell>
        <mxCell id="or6pBrKF57FH7ejagVip-7" value="5" style="whiteSpace=wrap;html=1;aspect=fixed;" vertex="1" parent="1">
          <mxGeometry x="1290" y="1020" width="40" height="40" as="geometry" />
        </mxCell>
        <mxCell id="or6pBrKF57FH7ejagVip-8" value="Jitsi-2" style="rounded=0;whiteSpace=wrap;html=1;" vertex="1" parent="1">
          <mxGeometry x="1090" y="475" width="120" height="110" as="geometry" />
        </mxCell>
        <mxCell id="or6pBrKF57FH7ejagVip-9" value="In" style="whiteSpace=wrap;html=1;aspect=fixed;" vertex="1" parent="1">
          <mxGeometry x="1070" y="485" width="40" height="40" as="geometry" />
        </mxCell>
        <mxCell id="or6pBrKF57FH7ejagVip-10" value="Out" style="whiteSpace=wrap;html=1;aspect=fixed;" vertex="1" parent="1">
          <mxGeometry x="1070" y="535" width="40" height="40" as="geometry" />
        </mxCell>
        <mxCell id="or6pBrKF57FH7ejagVip-11" value="Jitsi-1" style="rounded=0;whiteSpace=wrap;html=1;" vertex="1" parent="1">
          <mxGeometry x="1090" y="610" width="120" height="110" as="geometry" />
        </mxCell>
        <mxCell id="or6pBrKF57FH7ejagVip-12" value="In" style="whiteSpace=wrap;html=1;aspect=fixed;" vertex="1" parent="1">
          <mxGeometry x="1070" y="620" width="40" height="40" as="geometry" />
        </mxCell>
        <mxCell id="or6pBrKF57FH7ejagVip-13" value="Out" style="whiteSpace=wrap;html=1;aspect=fixed;" vertex="1" parent="1">
          <mxGeometry x="1070" y="670" width="40" height="40" as="geometry" />
        </mxCell>
        <mxCell id="or6pBrKF57FH7ejagVip-14" value="" style="curved=1;endArrow=classic;html=1;rounded=0;entryX=0.5;entryY=0;entryDx=0;entryDy=0;exitX=0;exitY=0.5;exitDx=0;exitDy=0;fillColor=#dae8fc;strokeColor=#6c8ebf;strokeWidth=4;" edge="1" parent="1" source="or6pBrKF57FH7ejagVip-10" target="uiXceuFEp8EhakddFhkQ-39">
          <mxGeometry width="50" height="50" relative="1" as="geometry">
            <mxPoint x="1080" y="430" as="sourcePoint" />
            <mxPoint x="740" y="780" as="targetPoint" />
            <Array as="points">
              <mxPoint x="790" y="555" />
            </Array>
          </mxGeometry>
        </mxCell>
        <mxCell id="or6pBrKF57FH7ejagVip-15" value="" style="curved=1;endArrow=classic;html=1;rounded=0;entryX=0.5;entryY=0;entryDx=0;entryDy=0;exitX=0;exitY=0.5;exitDx=0;exitDy=0;fillColor=#dae8fc;strokeColor=#6c8ebf;strokeWidth=4;" edge="1" parent="1" source="or6pBrKF57FH7ejagVip-13" target="uiXceuFEp8EhakddFhkQ-40">
          <mxGeometry width="50" height="50" relative="1" as="geometry">
            <mxPoint x="1090" y="440" as="sourcePoint" />
            <mxPoint x="750" y="790" as="targetPoint" />
            <Array as="points">
              <mxPoint x="830" y="690" />
            </Array>
          </mxGeometry>
        </mxCell>
        <mxCell id="or6pBrKF57FH7ejagVip-16" value="HDMI" style="whiteSpace=wrap;html=1;aspect=fixed;" vertex="1" parent="1">
          <mxGeometry x="1180" y="120" width="40" height="40" as="geometry" />
        </mxCell>
        <mxCell id="or6pBrKF57FH7ejagVip-17" value="HDMI" style="whiteSpace=wrap;html=1;aspect=fixed;" vertex="1" parent="1">
          <mxGeometry x="1180" y="260" width="40" height="40" as="geometry" />
        </mxCell>
        <mxCell id="or6pBrKF57FH7ejagVip-18" value="HDMI" style="whiteSpace=wrap;html=1;aspect=fixed;" vertex="1" parent="1">
          <mxGeometry x="1180" y="400" width="40" height="40" as="geometry" />
        </mxCell>
        <mxCell id="or6pBrKF57FH7ejagVip-19" value="HDMI" style="whiteSpace=wrap;html=1;aspect=fixed;" vertex="1" parent="1">
          <mxGeometry x="1180" y="535" width="40" height="40" as="geometry" />
        </mxCell>
        <mxCell id="or6pBrKF57FH7ejagVip-20" value="HDMI" style="whiteSpace=wrap;html=1;aspect=fixed;" vertex="1" parent="1">
          <mxGeometry x="1180" y="670" width="40" height="40" as="geometry" />
        </mxCell>
        <mxCell id="or6pBrKF57FH7ejagVip-21" value="" style="curved=1;endArrow=classic;html=1;rounded=0;entryX=0.5;entryY=0;entryDx=0;entryDy=0;exitX=1;exitY=0.5;exitDx=0;exitDy=0;fillColor=#d5e8d4;strokeColor=#82b366;strokeWidth=4;" edge="1" parent="1" source="or6pBrKF57FH7ejagVip-20" target="or6pBrKF57FH7ejagVip-3">
          <mxGeometry width="50" height="50" relative="1" as="geometry">
            <mxPoint x="1080" y="700" as="sourcePoint" />
            <mxPoint x="840" y="890" as="targetPoint" />
            <Array as="points">
              <mxPoint x="1260" y="690" />
              <mxPoint x="1250" y="870" />
              <mxPoint x="1110" y="930" />
            </Array>
          </mxGeometry>
        </mxCell>
        <mxCell id="or6pBrKF57FH7ejagVip-22" value="" style="curved=1;endArrow=classic;html=1;rounded=0;entryX=0.5;entryY=0;entryDx=0;entryDy=0;exitX=1;exitY=0.5;exitDx=0;exitDy=0;fillColor=#d5e8d4;strokeColor=#82b366;strokeWidth=4;" edge="1" parent="1" source="or6pBrKF57FH7ejagVip-19" target="or6pBrKF57FH7ejagVip-4">
          <mxGeometry width="50" height="50" relative="1" as="geometry">
            <mxPoint x="1230" y="700" as="sourcePoint" />
            <mxPoint x="1120" y="890" as="targetPoint" />
            <Array as="points">
              <mxPoint x="1280" y="555" />
              <mxPoint x="1280" y="890" />
              <mxPoint x="1160" y="950" />
            </Array>
          </mxGeometry>
        </mxCell>
        <mxCell id="or6pBrKF57FH7ejagVip-23" value="" style="curved=1;endArrow=classic;html=1;rounded=0;exitX=1;exitY=0.5;exitDx=0;exitDy=0;fillColor=#d5e8d4;strokeColor=#82b366;strokeWidth=4;entryX=0;entryY=0.5;entryDx=0;entryDy=0;" edge="1" parent="1" source="or6pBrKF57FH7ejagVip-18" target="or6pBrKF57FH7ejagVip-32">
          <mxGeometry width="50" height="50" relative="1" as="geometry">
            <mxPoint x="1230" y="565" as="sourcePoint" />
            <mxPoint x="1210" y="870" as="targetPoint" />
            <Array as="points">
              <mxPoint x="1440" y="420" />
              <mxPoint x="1480" y="590" />
            </Array>
          </mxGeometry>
        </mxCell>
        <mxCell id="or6pBrKF57FH7ejagVip-25" value="Infobeamer" style="rounded=0;whiteSpace=wrap;html=1;" vertex="1" parent="1">
          <mxGeometry x="1090" y="750" width="120" height="110" as="geometry" />
        </mxCell>
        <mxCell id="or6pBrKF57FH7ejagVip-26" value="In" style="whiteSpace=wrap;html=1;aspect=fixed;" vertex="1" parent="1">
          <mxGeometry x="1070" y="760" width="40" height="40" as="geometry" />
        </mxCell>
        <mxCell id="or6pBrKF57FH7ejagVip-27" value="Out" style="whiteSpace=wrap;html=1;aspect=fixed;" vertex="1" parent="1">
          <mxGeometry x="1070" y="810" width="40" height="40" as="geometry" />
        </mxCell>
        <mxCell id="or6pBrKF57FH7ejagVip-28" value="HDMI" style="whiteSpace=wrap;html=1;aspect=fixed;" vertex="1" parent="1">
          <mxGeometry x="1180" y="810" width="40" height="40" as="geometry" />
        </mxCell>
        <mxCell id="or6pBrKF57FH7ejagVip-29" value="" style="curved=1;endArrow=classic;html=1;rounded=0;entryX=0.5;entryY=0;entryDx=0;entryDy=0;exitX=0;exitY=0.5;exitDx=0;exitDy=0;fillColor=#dae8fc;strokeColor=#6c8ebf;strokeWidth=4;" edge="1" parent="1" source="or6pBrKF57FH7ejagVip-27" target="uiXceuFEp8EhakddFhkQ-41">
          <mxGeometry width="50" height="50" relative="1" as="geometry">
            <mxPoint x="1080" y="700" as="sourcePoint" />
            <mxPoint x="840" y="1030" as="targetPoint" />
            <Array as="points">
              <mxPoint x="880" y="830" />
            </Array>
          </mxGeometry>
        </mxCell>
        <mxCell id="or6pBrKF57FH7ejagVip-30" value="" style="curved=1;endArrow=classic;html=1;rounded=0;entryX=0.5;entryY=0;entryDx=0;entryDy=0;exitX=1;exitY=0.5;exitDx=0;exitDy=0;fillColor=#d5e8d4;strokeColor=#82b366;strokeWidth=4;" edge="1" parent="1" source="or6pBrKF57FH7ejagVip-28" target="or6pBrKF57FH7ejagVip-7">
          <mxGeometry width="50" height="50" relative="1" as="geometry">
            <mxPoint x="1230" y="700" as="sourcePoint" />
            <mxPoint x="1120" y="1030" as="targetPoint" />
            <Array as="points">
              <mxPoint x="1310" y="830" />
              <mxPoint x="1310" y="940" />
            </Array>
          </mxGeometry>
        </mxCell>
        <mxCell id="or6pBrKF57FH7ejagVip-31" value="HDMI&lt;br&gt;Switcher" style="rounded=0;whiteSpace=wrap;html=1;direction=south;align=right;" vertex="1" parent="1">
          <mxGeometry x="1550" y="570" width="100" height="150" as="geometry" />
        </mxCell>
        <mxCell id="or6pBrKF57FH7ejagVip-32" value="In" style="whiteSpace=wrap;html=1;aspect=fixed;" vertex="1" parent="1">
          <mxGeometry x="1540" y="585" width="40" height="40" as="geometry" />
        </mxCell>
        <mxCell id="or6pBrKF57FH7ejagVip-33" value="Out" style="whiteSpace=wrap;html=1;aspect=fixed;" vertex="1" parent="1">
          <mxGeometry x="1580" y="700" width="40" height="40" as="geometry" />
        </mxCell>
        <mxCell id="or6pBrKF57FH7ejagVip-34" value="" style="curved=1;endArrow=classic;html=1;rounded=0;entryX=0.5;entryY=0;entryDx=0;entryDy=0;exitX=0.5;exitY=1;exitDx=0;exitDy=0;fillColor=#d5e8d4;strokeColor=#82b366;strokeWidth=4;" edge="1" parent="1" source="or6pBrKF57FH7ejagVip-33" target="or6pBrKF57FH7ejagVip-6">
          <mxGeometry width="50" height="50" relative="1" as="geometry">
            <mxPoint x="1230" y="840" as="sourcePoint" />
            <mxPoint x="1320" y="1030" as="targetPoint" />
            <Array as="points">
              <mxPoint x="1600" y="770" />
              <mxPoint x="1260" y="920" />
            </Array>
          </mxGeometry>
        </mxCell>
      </root>
    </mxGraphModel>
  </diagram>
</mxfile>
